<svg width="430" height="430" viewBox="0 0 430 430" fill="none" xmlns="http://www.w3.org/2000/svg">
<path d="M215 34C115.2 34 34 115.2 34 215C34 314.8 115.2 396 215 396C314.8 396 396 314.8 396 215C396 115.2 314.7 34 215 34ZM215 383.9C121.8 383.9 46 308.1 46 214.9C46 121.7 121.8 46 215 46C308.2 46 384 121.8 384 215C384 308.2 308.1 383.9 215 383.9ZM117.8 157.8C116.6 159 115 159.7 113.5 159.7C112 159.7 110.5 159.1 109.4 158.1C107 155.8 106.9 152 109.2 149.6C110.3 148.4 136.8 120.9 169.9 127.2C173.2 127.8 175.3 131 174.7 134.2C174.1 137.4 170.9 139.6 167.7 139C140.9 134 118 157.6 117.8 157.8ZM322.4 149.6C324.7 152 324.6 155.8 322.2 158.1C321 159.2 319.6 159.7 318.1 159.7C316.5 159.7 314.9 159.1 313.8 157.8C313.6 157.6 290.6 133.9 264.1 139C260.8 139.6 257.7 137.5 257.1 134.2C256.5 130.9 258.6 127.8 261.9 127.2C294.8 120.9 321.3 148.4 322.4 149.6ZM272.5 301.2C274.3 304 273.5 307.7 270.7 309.5C249.6 323.1 230 327.3 213.8 327.3C205.2 327.3 197.6 326.1 191.3 324.5C171.3 319.5 159 309.5 158.5 309.1C155.9 307 155.6 303.2 157.7 300.6C159.8 298 163.6 297.7 166.1 299.8C166.2 299.9 177.2 308.7 194.7 313C218 318.7 241.3 314.1 264.2 299.4C267 297.6 270.7 298.4 272.5 301.2ZM150.7 207.9C141.6 207.9 134.1 200.5 134.1 191.3C134.1 182.2 141.5 174.7 150.7 174.7C159.9 174.7 167.3 182.1 167.3 191.3C167.3 200.5 159.9 207.9 150.7 207.9ZM297 191.3C297 200.4 289.6 207.9 280.4 207.9C271.3 207.9 263.8 200.5 263.8 191.3C263.8 182.2 271.2 174.7 280.4 174.7C289.5 174.8 297 182.2 297 191.3Z" fill="url(#paint0_linear_2035_402)"/>
<defs>
<linearGradient id="paint0_linear_2035_402" x1="87.0625" y1="87.0625" x2="342.858" y2="342.858" gradientUnits="userSpaceOnUse">
<stop stop-color="#CB5EEE"/>
<stop offset="1" stop-color="#4BE1EC"/>
</linearGradient>
</defs>
</svg>
